<mxfile host="app.diagrams.net" agent="Mozilla/5.0 (Macintosh; Intel Mac OS X 10_15_7) AppleWebKit/605.1.15 (KHTML, like Gecko) Version/18.2 Safari/605.1.15" version="27.1.6">
  <diagram name="Page-1" id="19d8dcba-68ad-dc05-1034-9cf7b2a963f6">
    <mxGraphModel dx="1371" dy="883" grid="1" gridSize="10" guides="1" tooltips="1" connect="1" arrows="1" fold="1" page="1" pageScale="1" pageWidth="1169" pageHeight="827" background="none" math="0" shadow="0">
      <root>
        <mxCell id="0" />
        <mxCell id="1" parent="0" />
        <mxCell id="afKes9c1ewRuRJCck2Ff-32" style="edgeStyle=orthogonalEdgeStyle;rounded=0;orthogonalLoop=1;jettySize=auto;html=1;exitX=0.5;exitY=1;exitDx=0;exitDy=0;entryX=0.5;entryY=0;entryDx=0;entryDy=0;" edge="1" parent="1" source="afKes9c1ewRuRJCck2Ff-2" target="afKes9c1ewRuRJCck2Ff-4">
          <mxGeometry relative="1" as="geometry" />
        </mxCell>
        <mxCell id="afKes9c1ewRuRJCck2Ff-33" style="edgeStyle=orthogonalEdgeStyle;rounded=0;orthogonalLoop=1;jettySize=auto;html=1;exitX=0.5;exitY=1;exitDx=0;exitDy=0;entryX=0.5;entryY=0;entryDx=0;entryDy=0;" edge="1" parent="1" source="afKes9c1ewRuRJCck2Ff-2" target="afKes9c1ewRuRJCck2Ff-7">
          <mxGeometry relative="1" as="geometry" />
        </mxCell>
        <mxCell id="afKes9c1ewRuRJCck2Ff-34" style="edgeStyle=orthogonalEdgeStyle;rounded=0;orthogonalLoop=1;jettySize=auto;html=1;exitX=0.5;exitY=1;exitDx=0;exitDy=0;entryX=0.5;entryY=0;entryDx=0;entryDy=0;" edge="1" parent="1" source="afKes9c1ewRuRJCck2Ff-2" target="afKes9c1ewRuRJCck2Ff-8">
          <mxGeometry relative="1" as="geometry" />
        </mxCell>
        <mxCell id="afKes9c1ewRuRJCck2Ff-35" style="edgeStyle=orthogonalEdgeStyle;rounded=0;orthogonalLoop=1;jettySize=auto;html=1;exitX=0.5;exitY=1;exitDx=0;exitDy=0;entryX=0.5;entryY=0;entryDx=0;entryDy=0;" edge="1" parent="1" source="afKes9c1ewRuRJCck2Ff-2" target="afKes9c1ewRuRJCck2Ff-9">
          <mxGeometry relative="1" as="geometry" />
        </mxCell>
        <mxCell id="afKes9c1ewRuRJCck2Ff-2" value="&lt;span style=&quot;font-size: 25px;&quot;&gt;表示层&lt;/span&gt;" style="rounded=0;whiteSpace=wrap;html=1;" vertex="1" parent="1">
          <mxGeometry x="120" y="180" width="120" height="60" as="geometry" />
        </mxCell>
        <mxCell id="afKes9c1ewRuRJCck2Ff-4" value="&lt;font style=&quot;font-size: 25px;&quot;&gt;欢&lt;/font&gt;&lt;div&gt;&lt;font style=&quot;font-size: 25px;&quot;&gt;迎&lt;/font&gt;&lt;/div&gt;&lt;div&gt;&lt;font style=&quot;font-size: 25px;&quot;&gt;界&lt;/font&gt;&lt;/div&gt;&lt;div&gt;&lt;font style=&quot;font-size: 25px;&quot;&gt;面&lt;/font&gt;&lt;/div&gt;" style="rounded=0;whiteSpace=wrap;html=1;" vertex="1" parent="1">
          <mxGeometry x="30" y="310" width="60" height="240" as="geometry" />
        </mxCell>
        <mxCell id="afKes9c1ewRuRJCck2Ff-6" value="&lt;span style=&quot;font-size: 25px;&quot;&gt;基于Linux的学生成绩管理系统&lt;/span&gt;" style="rounded=0;whiteSpace=wrap;html=1;" vertex="1" parent="1">
          <mxGeometry x="404" y="30" width="412" height="60" as="geometry" />
        </mxCell>
        <mxCell id="afKes9c1ewRuRJCck2Ff-7" value="&lt;span style=&quot;font-size: 25px;&quot;&gt;学&lt;/span&gt;&lt;div&gt;&lt;span style=&quot;font-size: 25px;&quot;&gt;院&lt;/span&gt;&lt;/div&gt;&lt;div&gt;&lt;span style=&quot;font-size: 25px;&quot;&gt;管&lt;/span&gt;&lt;/div&gt;&lt;div&gt;&lt;span style=&quot;font-size: 25px;&quot;&gt;理&lt;/span&gt;&lt;/div&gt;&lt;div&gt;&lt;span style=&quot;font-size: 25px;&quot;&gt;界&lt;/span&gt;&lt;/div&gt;&lt;div&gt;&lt;span style=&quot;font-size: 25px;&quot;&gt;面&lt;/span&gt;&lt;/div&gt;" style="rounded=0;whiteSpace=wrap;html=1;" vertex="1" parent="1">
          <mxGeometry x="110" y="310" width="60" height="240" as="geometry" />
        </mxCell>
        <mxCell id="afKes9c1ewRuRJCck2Ff-8" value="&lt;span style=&quot;font-size: 25px;&quot;&gt;学&lt;/span&gt;&lt;div&gt;&lt;span style=&quot;font-size: 25px;&quot;&gt;生&lt;/span&gt;&lt;/div&gt;&lt;div&gt;&lt;span style=&quot;font-size: 25px;&quot;&gt;管&lt;/span&gt;&lt;/div&gt;&lt;div&gt;&lt;span style=&quot;font-size: 25px;&quot;&gt;理&lt;/span&gt;&lt;/div&gt;&lt;div&gt;&lt;span style=&quot;font-size: 25px;&quot;&gt;界&lt;/span&gt;&lt;/div&gt;&lt;div&gt;&lt;span style=&quot;font-size: 25px;&quot;&gt;面&lt;/span&gt;&lt;/div&gt;" style="rounded=0;whiteSpace=wrap;html=1;" vertex="1" parent="1">
          <mxGeometry x="190" y="310" width="60" height="240" as="geometry" />
        </mxCell>
        <mxCell id="afKes9c1ewRuRJCck2Ff-9" value="&lt;span style=&quot;font-size: 25px;&quot;&gt;成&lt;/span&gt;&lt;div&gt;&lt;span style=&quot;font-size: 25px;&quot;&gt;绩&lt;/span&gt;&lt;br&gt;&lt;div&gt;&lt;span style=&quot;font-size: 25px;&quot;&gt;管&lt;/span&gt;&lt;/div&gt;&lt;div&gt;&lt;span style=&quot;font-size: 25px;&quot;&gt;理&lt;/span&gt;&lt;/div&gt;&lt;div&gt;&lt;span style=&quot;font-size: 25px;&quot;&gt;界&lt;/span&gt;&lt;/div&gt;&lt;div&gt;&lt;span style=&quot;font-size: 25px;&quot;&gt;面&lt;/span&gt;&lt;/div&gt;&lt;/div&gt;" style="rounded=0;whiteSpace=wrap;html=1;" vertex="1" parent="1">
          <mxGeometry x="270" y="310" width="60" height="240" as="geometry" />
        </mxCell>
        <mxCell id="afKes9c1ewRuRJCck2Ff-36" style="edgeStyle=orthogonalEdgeStyle;rounded=0;orthogonalLoop=1;jettySize=auto;html=1;exitX=0.5;exitY=1;exitDx=0;exitDy=0;entryX=0.5;entryY=0;entryDx=0;entryDy=0;" edge="1" parent="1" source="afKes9c1ewRuRJCck2Ff-12" target="afKes9c1ewRuRJCck2Ff-15">
          <mxGeometry relative="1" as="geometry" />
        </mxCell>
        <mxCell id="afKes9c1ewRuRJCck2Ff-37" style="edgeStyle=orthogonalEdgeStyle;rounded=0;orthogonalLoop=1;jettySize=auto;html=1;exitX=0.5;exitY=1;exitDx=0;exitDy=0;entryX=0.5;entryY=0;entryDx=0;entryDy=0;" edge="1" parent="1" source="afKes9c1ewRuRJCck2Ff-12" target="afKes9c1ewRuRJCck2Ff-13">
          <mxGeometry relative="1" as="geometry" />
        </mxCell>
        <mxCell id="afKes9c1ewRuRJCck2Ff-38" style="edgeStyle=orthogonalEdgeStyle;rounded=0;orthogonalLoop=1;jettySize=auto;html=1;exitX=0.5;exitY=1;exitDx=0;exitDy=0;entryX=0.5;entryY=0;entryDx=0;entryDy=0;" edge="1" parent="1" source="afKes9c1ewRuRJCck2Ff-12" target="afKes9c1ewRuRJCck2Ff-14">
          <mxGeometry relative="1" as="geometry" />
        </mxCell>
        <mxCell id="afKes9c1ewRuRJCck2Ff-39" style="edgeStyle=orthogonalEdgeStyle;rounded=0;orthogonalLoop=1;jettySize=auto;html=1;exitX=0.5;exitY=1;exitDx=0;exitDy=0;" edge="1" parent="1" source="afKes9c1ewRuRJCck2Ff-12" target="afKes9c1ewRuRJCck2Ff-16">
          <mxGeometry relative="1" as="geometry" />
        </mxCell>
        <mxCell id="afKes9c1ewRuRJCck2Ff-40" style="edgeStyle=orthogonalEdgeStyle;rounded=0;orthogonalLoop=1;jettySize=auto;html=1;exitX=0.5;exitY=1;exitDx=0;exitDy=0;entryX=0.5;entryY=0;entryDx=0;entryDy=0;" edge="1" parent="1" source="afKes9c1ewRuRJCck2Ff-12" target="afKes9c1ewRuRJCck2Ff-17">
          <mxGeometry relative="1" as="geometry" />
        </mxCell>
        <mxCell id="afKes9c1ewRuRJCck2Ff-12" value="&lt;span style=&quot;font-size: 25px;&quot;&gt;业务逻辑层&lt;/span&gt;" style="rounded=0;whiteSpace=wrap;html=1;" vertex="1" parent="1">
          <mxGeometry x="522.5" y="180" width="175" height="60" as="geometry" />
        </mxCell>
        <mxCell id="afKes9c1ewRuRJCck2Ff-13" value="&lt;span style=&quot;font-size: 25px;&quot;&gt;添&lt;/span&gt;&lt;div&gt;&lt;span style=&quot;font-size: 25px;&quot;&gt;加&lt;/span&gt;&lt;/div&gt;&lt;div&gt;&lt;span style=&quot;font-size: 25px;&quot;&gt;功&lt;/span&gt;&lt;/div&gt;&lt;div&gt;&lt;span style=&quot;font-size: 25px;&quot;&gt;能&lt;/span&gt;&lt;/div&gt;&lt;div&gt;&lt;span style=&quot;font-size: 25px;&quot;&gt;逻&lt;/span&gt;&lt;/div&gt;&lt;div&gt;&lt;span style=&quot;font-size: 25px;&quot;&gt;辑&lt;/span&gt;&lt;/div&gt;" style="rounded=0;whiteSpace=wrap;html=1;" vertex="1" parent="1">
          <mxGeometry x="420" y="310" width="60" height="240" as="geometry" />
        </mxCell>
        <mxCell id="afKes9c1ewRuRJCck2Ff-14" value="&lt;span style=&quot;font-size: 25px;&quot;&gt;删&lt;/span&gt;&lt;div&gt;&lt;span style=&quot;font-size: 25px;&quot;&gt;除&lt;/span&gt;&lt;/div&gt;&lt;div&gt;&lt;span style=&quot;font-size: 25px;&quot;&gt;功&lt;/span&gt;&lt;/div&gt;&lt;div&gt;&lt;span style=&quot;font-size: 25px;&quot;&gt;能&lt;/span&gt;&lt;/div&gt;&lt;div&gt;&lt;span style=&quot;font-size: 25px;&quot;&gt;逻&lt;/span&gt;&lt;/div&gt;&lt;div&gt;&lt;span style=&quot;font-size: 25px;&quot;&gt;辑&lt;/span&gt;&lt;/div&gt;" style="rounded=0;whiteSpace=wrap;html=1;" vertex="1" parent="1">
          <mxGeometry x="500" y="310" width="60" height="240" as="geometry" />
        </mxCell>
        <mxCell id="afKes9c1ewRuRJCck2Ff-15" value="&lt;span style=&quot;font-size: 25px;&quot;&gt;更&lt;/span&gt;&lt;div&gt;&lt;span style=&quot;font-size: 25px;&quot;&gt;新&lt;/span&gt;&lt;/div&gt;&lt;div&gt;&lt;span style=&quot;font-size: 25px;&quot;&gt;功&lt;/span&gt;&lt;/div&gt;&lt;div&gt;&lt;span style=&quot;font-size: 25px;&quot;&gt;能&lt;/span&gt;&lt;/div&gt;&lt;div&gt;&lt;span style=&quot;font-size: 25px;&quot;&gt;逻&lt;/span&gt;&lt;/div&gt;&lt;div&gt;&lt;span style=&quot;font-size: 25px;&quot;&gt;辑&lt;/span&gt;&lt;/div&gt;" style="rounded=0;whiteSpace=wrap;html=1;" vertex="1" parent="1">
          <mxGeometry x="580" y="310" width="60" height="240" as="geometry" />
        </mxCell>
        <mxCell id="afKes9c1ewRuRJCck2Ff-16" value="&lt;span style=&quot;font-size: 25px;&quot;&gt;查&lt;/span&gt;&lt;div&gt;&lt;span style=&quot;font-size: 25px;&quot;&gt;询&lt;/span&gt;&lt;/div&gt;&lt;div&gt;&lt;span style=&quot;font-size: 25px;&quot;&gt;功&lt;/span&gt;&lt;/div&gt;&lt;div&gt;&lt;span style=&quot;font-size: 25px;&quot;&gt;能&lt;/span&gt;&lt;/div&gt;&lt;div&gt;&lt;span style=&quot;font-size: 25px;&quot;&gt;逻&lt;/span&gt;&lt;/div&gt;&lt;div&gt;&lt;span style=&quot;font-size: 25px;&quot;&gt;辑&lt;/span&gt;&lt;/div&gt;" style="rounded=0;whiteSpace=wrap;html=1;" vertex="1" parent="1">
          <mxGeometry x="660" y="310" width="60" height="240" as="geometry" />
        </mxCell>
        <mxCell id="afKes9c1ewRuRJCck2Ff-17" value="&lt;span style=&quot;font-size: 25px;&quot;&gt;数&lt;/span&gt;&lt;div&gt;&lt;span style=&quot;font-size: 25px;&quot;&gt;据&lt;/span&gt;&lt;/div&gt;&lt;div&gt;&lt;span style=&quot;font-size: 25px;&quot;&gt;校&lt;/span&gt;&lt;/div&gt;&lt;div&gt;&lt;span style=&quot;font-size: 25px;&quot;&gt;验&lt;/span&gt;&lt;/div&gt;&lt;div&gt;&lt;span style=&quot;font-size: 25px;&quot;&gt;与&lt;/span&gt;&lt;/div&gt;&lt;div&gt;&lt;span style=&quot;font-size: 25px;&quot;&gt;规&lt;/span&gt;&lt;/div&gt;&lt;div&gt;&lt;span style=&quot;font-size: 25px;&quot;&gt;则&lt;/span&gt;&lt;/div&gt;" style="rounded=0;whiteSpace=wrap;html=1;" vertex="1" parent="1">
          <mxGeometry x="745" y="310" width="60" height="240" as="geometry" />
        </mxCell>
        <mxCell id="afKes9c1ewRuRJCck2Ff-41" style="edgeStyle=orthogonalEdgeStyle;rounded=0;orthogonalLoop=1;jettySize=auto;html=1;exitX=0.5;exitY=1;exitDx=0;exitDy=0;entryX=0.5;entryY=0;entryDx=0;entryDy=0;" edge="1" parent="1" source="afKes9c1ewRuRJCck2Ff-18" target="afKes9c1ewRuRJCck2Ff-19">
          <mxGeometry relative="1" as="geometry" />
        </mxCell>
        <mxCell id="afKes9c1ewRuRJCck2Ff-42" style="edgeStyle=orthogonalEdgeStyle;rounded=0;orthogonalLoop=1;jettySize=auto;html=1;exitX=0.5;exitY=1;exitDx=0;exitDy=0;entryX=0.5;entryY=0;entryDx=0;entryDy=0;" edge="1" parent="1" source="afKes9c1ewRuRJCck2Ff-18" target="afKes9c1ewRuRJCck2Ff-20">
          <mxGeometry relative="1" as="geometry" />
        </mxCell>
        <mxCell id="afKes9c1ewRuRJCck2Ff-43" style="edgeStyle=orthogonalEdgeStyle;rounded=0;orthogonalLoop=1;jettySize=auto;html=1;exitX=0.5;exitY=1;exitDx=0;exitDy=0;entryX=0.5;entryY=0;entryDx=0;entryDy=0;" edge="1" parent="1" source="afKes9c1ewRuRJCck2Ff-18" target="afKes9c1ewRuRJCck2Ff-21">
          <mxGeometry relative="1" as="geometry" />
        </mxCell>
        <mxCell id="afKes9c1ewRuRJCck2Ff-44" style="edgeStyle=orthogonalEdgeStyle;rounded=0;orthogonalLoop=1;jettySize=auto;html=1;exitX=0.5;exitY=1;exitDx=0;exitDy=0;entryX=0.5;entryY=0;entryDx=0;entryDy=0;" edge="1" parent="1" source="afKes9c1ewRuRJCck2Ff-18" target="afKes9c1ewRuRJCck2Ff-22">
          <mxGeometry relative="1" as="geometry" />
        </mxCell>
        <mxCell id="afKes9c1ewRuRJCck2Ff-18" value="&lt;span style=&quot;font-size: 25px;&quot;&gt;数据访问层&lt;/span&gt;" style="rounded=0;html=1;verticalAlign=middle;horizontal=1;whiteSpace=wrap;" vertex="1" parent="1">
          <mxGeometry x="970" y="180" width="180" height="60" as="geometry" />
        </mxCell>
        <mxCell id="afKes9c1ewRuRJCck2Ff-19" value="&lt;span style=&quot;font-size: 25px;&quot;&gt;数&lt;/span&gt;&lt;div&gt;&lt;span style=&quot;font-size: 25px;&quot;&gt;据&lt;/span&gt;&lt;/div&gt;&lt;div&gt;&lt;span style=&quot;font-size: 25px;&quot;&gt;库&lt;/span&gt;&lt;/div&gt;&lt;div&gt;&lt;span style=&quot;font-size: 25px;&quot;&gt;连&lt;/span&gt;&lt;/div&gt;&lt;div&gt;&lt;span style=&quot;font-size: 25px;&quot;&gt;接&lt;/span&gt;&lt;/div&gt;&lt;div&gt;&lt;span style=&quot;font-size: 25px;&quot;&gt;管&lt;/span&gt;&lt;/div&gt;&lt;div&gt;&lt;span style=&quot;font-size: 25px;&quot;&gt;理&lt;/span&gt;&lt;/div&gt;" style="rounded=0;whiteSpace=wrap;html=1;" vertex="1" parent="1">
          <mxGeometry x="910" y="310" width="60" height="240" as="geometry" />
        </mxCell>
        <mxCell id="afKes9c1ewRuRJCck2Ff-20" value="&lt;span style=&quot;font-size: 25px;&quot;&gt;数&lt;/span&gt;&lt;div&gt;&lt;span style=&quot;font-size: 25px;&quot;&gt;据&lt;/span&gt;&lt;/div&gt;&lt;div&gt;&lt;span style=&quot;font-size: 25px;&quot;&gt;库&lt;/span&gt;&lt;/div&gt;&lt;div&gt;&lt;span style=&quot;font-size: 25px;&quot;&gt;函&lt;/span&gt;&lt;/div&gt;&lt;div&gt;&lt;span style=&quot;font-size: 25px;&quot;&gt;数&lt;/span&gt;&lt;/div&gt;" style="rounded=0;whiteSpace=wrap;html=1;" vertex="1" parent="1">
          <mxGeometry x="990" y="310" width="60" height="240" as="geometry" />
        </mxCell>
        <mxCell id="afKes9c1ewRuRJCck2Ff-21" value="&lt;span style=&quot;font-size: 25px;&quot;&gt;结&lt;/span&gt;&lt;div&gt;&lt;span style=&quot;font-size: 25px;&quot;&gt;果&lt;/span&gt;&lt;/div&gt;&lt;div&gt;&lt;span style=&quot;font-size: 25px;&quot;&gt;解&lt;/span&gt;&lt;/div&gt;&lt;div&gt;&lt;span style=&quot;font-size: 25px;&quot;&gt;析&lt;/span&gt;&lt;/div&gt;&lt;div&gt;&lt;span style=&quot;font-size: 25px;&quot;&gt;与&lt;/span&gt;&lt;/div&gt;&lt;div&gt;&lt;span style=&quot;font-size: 25px;&quot;&gt;返&lt;/span&gt;&lt;/div&gt;&lt;div&gt;&lt;span style=&quot;font-size: 25px;&quot;&gt;回&lt;/span&gt;&lt;/div&gt;" style="rounded=0;whiteSpace=wrap;html=1;" vertex="1" parent="1">
          <mxGeometry x="1070" y="310" width="60" height="240" as="geometry" />
        </mxCell>
        <mxCell id="afKes9c1ewRuRJCck2Ff-22" value="&lt;span style=&quot;font-size: 25px;&quot;&gt;数&lt;/span&gt;&lt;div&gt;&lt;span style=&quot;font-size: 25px;&quot;&gt;据&lt;/span&gt;&lt;/div&gt;&lt;div&gt;&lt;span style=&quot;font-size: 25px;&quot;&gt;持&lt;/span&gt;&lt;/div&gt;&lt;div&gt;&lt;span style=&quot;font-size: 25px;&quot;&gt;久&lt;/span&gt;&lt;/div&gt;&lt;div&gt;&lt;span style=&quot;font-size: 25px;&quot;&gt;化&lt;/span&gt;&lt;/div&gt;&lt;div&gt;&lt;span style=&quot;font-size: 25px;&quot;&gt;操&lt;/span&gt;&lt;/div&gt;&lt;div&gt;&lt;span style=&quot;font-size: 25px;&quot;&gt;作&lt;/span&gt;&lt;/div&gt;" style="rounded=0;whiteSpace=wrap;html=1;" vertex="1" parent="1">
          <mxGeometry x="1150" y="310" width="60" height="240" as="geometry" />
        </mxCell>
        <mxCell id="afKes9c1ewRuRJCck2Ff-25" value="" style="endArrow=none;html=1;rounded=0;exitX=0.5;exitY=0;exitDx=0;exitDy=0;entryX=0.5;entryY=1;entryDx=0;entryDy=0;" edge="1" parent="1" source="afKes9c1ewRuRJCck2Ff-12" target="afKes9c1ewRuRJCck2Ff-6">
          <mxGeometry width="50" height="50" relative="1" as="geometry">
            <mxPoint x="570" y="140" as="sourcePoint" />
            <mxPoint x="620" y="90" as="targetPoint" />
          </mxGeometry>
        </mxCell>
        <mxCell id="afKes9c1ewRuRJCck2Ff-26" value="" style="endArrow=none;html=1;rounded=0;" edge="1" parent="1">
          <mxGeometry width="50" height="50" relative="1" as="geometry">
            <mxPoint x="610" y="140" as="sourcePoint" />
            <mxPoint x="1060" y="140" as="targetPoint" />
          </mxGeometry>
        </mxCell>
        <mxCell id="afKes9c1ewRuRJCck2Ff-29" value="" style="endArrow=none;html=1;rounded=0;exitX=0.5;exitY=0;exitDx=0;exitDy=0;" edge="1" parent="1" source="afKes9c1ewRuRJCck2Ff-18">
          <mxGeometry width="50" height="50" relative="1" as="geometry">
            <mxPoint x="1010" y="190" as="sourcePoint" />
            <mxPoint x="1060" y="140" as="targetPoint" />
          </mxGeometry>
        </mxCell>
        <mxCell id="afKes9c1ewRuRJCck2Ff-30" value="" style="endArrow=none;html=1;rounded=0;" edge="1" parent="1">
          <mxGeometry width="50" height="50" relative="1" as="geometry">
            <mxPoint x="180" y="140" as="sourcePoint" />
            <mxPoint x="610" y="140" as="targetPoint" />
          </mxGeometry>
        </mxCell>
        <mxCell id="afKes9c1ewRuRJCck2Ff-31" value="" style="endArrow=none;html=1;rounded=0;exitX=0.5;exitY=0;exitDx=0;exitDy=0;" edge="1" parent="1" source="afKes9c1ewRuRJCck2Ff-2">
          <mxGeometry width="50" height="50" relative="1" as="geometry">
            <mxPoint x="120" y="180" as="sourcePoint" />
            <mxPoint x="180" y="140" as="targetPoint" />
          </mxGeometry>
        </mxCell>
      </root>
    </mxGraphModel>
  </diagram>
</mxfile>
